<svg width="33" height="34" viewBox="0 0 33 34" fill="none" xmlns="http://www.w3.org/2000/svg">
<path d="M16.5 30.4922C24.0939 30.4922 30.25 24.3361 30.25 16.7422C30.25 9.14827 24.0939 2.99219 16.5 2.99219C8.90608 2.99219 2.75 9.14827 2.75 16.7422C2.75 24.3361 8.90608 30.4922 16.5 30.4922Z" stroke="currentColor" stroke-width="2" stroke-linecap="round" stroke-linejoin="round"/>
<path d="M20.2429 11.6079C20.9146 11.384 21.2505 11.272 21.4739 11.3517C21.6683 11.421 21.8212 11.5739 21.8905 11.7683C21.9702 11.9917 21.8582 12.3275 21.6343 12.9993L19.5889 19.1354C19.5252 19.3267 19.4933 19.4224 19.4389 19.5018C19.3908 19.5722 19.33 19.633 19.2596 19.6811C19.1802 19.7355 19.0845 19.7673 18.8932 19.8311L12.7571 21.8765C12.0854 22.1004 11.7495 22.2124 11.5261 22.1327C11.3317 22.0634 11.1788 21.9104 11.1095 21.7161C11.0298 21.4927 11.1418 21.1568 11.3657 20.4851L13.4111 14.349C13.4748 14.1576 13.5067 14.062 13.5611 13.9825C13.6092 13.9122 13.67 13.8514 13.7404 13.8033C13.8198 13.7489 13.9155 13.717 14.1068 13.6533L20.2429 11.6079Z" stroke="currentColor" stroke-width="2" stroke-linecap="round" stroke-linejoin="round"/>
</svg>
