<svg width="33" height="34" viewBox="0 0 33 34" fill="none" xmlns="http://www.w3.org/2000/svg">
<mask id="path-1-inside-1_19_1159" fill="currentColor">
<path fill-rule="evenodd" clip-rule="evenodd" d="M16.4775 8.93832C17.6112 8.12172 19.2205 7.20109 20.8653 6.47899C19.987 3.46373 18.3577 0.242188 16.4928 0.242188C14.6151 0.242188 12.9762 3.50843 12.1023 6.5415C13.716 7.23319 15.3125 8.12702 16.4775 8.93832Z"/>
</mask>
<path d="M20.8653 6.47899L21.6693 8.31027L23.2763 7.60472L22.7855 5.91967L20.8653 6.47899ZM16.4775 8.93832L15.3346 10.5795L16.4971 11.3891L17.6465 10.5611L16.4775 8.93832ZM12.1023 6.5415L10.1805 5.98779L9.69169 7.68423L11.3144 8.37975L12.1023 6.5415ZM20.0613 4.64772C18.3024 5.41992 16.5684 6.40802 15.3086 7.31551L17.6465 10.5611C18.654 9.83541 20.1387 8.98226 21.6693 8.31027L20.0613 4.64772ZM16.4928 2.24219C16.3569 2.24219 16.376 2.18038 16.5763 2.34347C16.7804 2.50971 17.0522 2.81591 17.3603 3.30143C17.9752 4.27052 18.537 5.63726 18.9451 7.03832L22.7855 5.91967C22.3153 4.30546 21.6232 2.55381 20.7377 1.15831C20.2956 0.461535 19.7555 -0.226111 19.1022 -0.758134C18.445 -1.29331 17.5612 -1.75781 16.4928 -1.75781V2.24219ZM14.0241 7.09522C14.4301 5.68608 14.9937 4.30353 15.6131 3.32092C15.9235 2.82849 16.1982 2.5166 16.4055 2.34666C16.6093 2.17961 16.6297 2.24219 16.4928 2.24219V-1.75781C15.4171 -1.75781 14.5285 -1.28695 13.8696 -0.746801C13.2142 -0.209533 12.6725 0.484703 12.2292 1.18797C11.3412 2.59675 10.6484 4.36386 10.1805 5.98779L14.0241 7.09522ZM11.3144 8.37975C12.8108 9.02118 14.2874 9.85031 15.3346 10.5795L17.6205 7.29708C16.3377 6.40372 14.6212 5.44519 12.8902 4.70325L11.3144 8.37975Z" fill="currentColor" mask="url(#path-1-inside-1_19_1159)"/>
<path d="M22.2779 31.6868L22.2779 31.6868C22.1196 31.9895 21.7391 32.2422 21.2536 32.2422H11.7464C11.2608 32.2422 10.8803 31.9895 10.722 31.6868L5.32106 21.3625C5.17905 21.091 5.20947 20.8118 5.37952 20.57C5.55538 20.3201 5.89045 20.1104 6.34547 20.1104H26.6545C27.1095 20.1104 27.4445 20.32 27.6204 20.57C27.7904 20.8117 27.8208 21.091 27.6788 21.3625L27.6788 21.3625L22.2779 31.6868Z" stroke="currentColor" stroke-width="2"/>
<path d="M14.384 10.4637C16.3779 12.2637 16.428 14.7836 14.9614 16.1077C13.4947 17.4318 10.7034 17.3865 8.70955 15.5865C7.6772 14.6545 6.15064 12.6015 5.12866 10.5482C4.61994 9.5261 4.2678 8.5654 4.14785 7.79141C4.02015 6.96747 4.19162 6.6201 4.32177 6.5026C4.45193 6.3851 4.8367 6.2303 5.7494 6.34559C6.60674 6.45388 7.67091 6.77178 8.80309 7.23103C11.0776 8.15365 13.3517 9.53178 14.384 10.4637Z" stroke="currentColor" stroke-width="2"/>
<path d="M18.616 10.4637C16.6221 12.2637 16.572 14.7836 18.0386 16.1077C19.5053 17.4318 22.2966 17.3865 24.2904 15.5865C25.3228 14.6545 26.8494 12.6015 27.8713 10.5482C28.3801 9.5261 28.7322 8.5654 28.8522 7.79141C28.9799 6.96747 28.8084 6.6201 28.6782 6.5026C28.5481 6.3851 28.1633 6.2303 27.2506 6.34559C26.3933 6.45388 25.3291 6.77178 24.1969 7.23103C21.9224 8.15365 19.6483 9.53178 18.616 10.4637Z" stroke="currentColor" stroke-width="2"/>
</svg>
